<svg preserveAspectRatio="none" overflow="visible" style="display: block;" width="72" height="72" viewBox="0 0 72 72" fill="none" xmlns="http://www.w3.org/2000/svg">
<g id="Frame">
<path id="Vector" d="M60 36L52.5 28.5L53.7 18L43.2 19.2L36 12L28.5 19.5L18 18.3L19.2 28.8L12 36L19.2 43.2L18 54L28.5 52.8L36 60L43.5 52.5L54 53.7L52.8 43.2L60 36Z" fill="#6610F2"/>
<path id="Vector_2" d="M28.5 34.2C30.8196 34.2 32.7 32.3196 32.7 30C32.7 27.6804 30.8196 25.8 28.5 25.8C26.1804 25.8 24.3 27.6804 24.3 30C24.3 32.3196 26.1804 34.2 28.5 34.2Z" fill="white"/>
<path id="Vector_3" d="M43.5 46.2C45.8196 46.2 47.7 44.3196 47.7 42C47.7 39.6804 45.8196 37.8 43.5 37.8C41.1804 37.8 39.3 39.6804 39.3 42C39.3 44.3196 41.1804 46.2 43.5 46.2Z" fill="white"/>
<path id="Vector_4" d="M27 45L45 27" stroke="white" stroke-width="1.4"/>
</g>
</svg>
